<svg width="18" height="19" viewBox="0 0 18 19" fill="none" xmlns="http://www.w3.org/2000/svg">
<g clip-path="url(#clip0)">
<path d="M9 0.773071C4.03749 0.773071 0 4.81056 0 9.77307C0 14.7356 4.03749 18.7731 9 18.7731C13.9625 18.7731 18 14.7356 18 9.77307C18 4.81056 13.9625 0.773071 9 0.773071ZM9 17.6481C4.65765 17.6481 1.12501 14.1154 1.12501 9.77307C1.12501 5.43072 4.65765 1.89808 9 1.89808C13.3424 1.89808 16.875 5.43072 16.875 9.77307C16.875 14.1154 13.3424 17.6481 9 17.6481Z" fill="black"/>
<path d="M9.5625 4.14807H8.4375V10.006L11.9773 13.5458L12.7727 12.7503L9.5625 9.54015V4.14807Z" fill="black"/>
</g>
<defs>
<clipPath id="clip0">
<rect width="18" height="18" fill="white" transform="translate(0 0.773071)"/>
</clipPath>
</defs>
</svg>
